<?xml version="1.0" standalone="no"?><!DOCTYPE svg PUBLIC "-//W3C//DTD SVG 1.1//EN" "http://www.w3.org/Graphics/SVG/1.1/DTD/svg11.dtd"><svg t="1690129748352" class="icon" viewBox="0 0 1024 1024" version="1.1" xmlns="http://www.w3.org/2000/svg" p-id="4358" data-darkreader-inline-fill="" width="180" height="180" xmlns:xlink="http://www.w3.org/1999/xlink"><path d="M412.51 432.424a20.003 20.003 0 0 1-14.826-6.577c-38.892-42.953-56.268-100.395-47.671-157.595 5.839-38.851 23.121-74.448 49.979-102.944 26.192-27.792 59.664-47.025 96.795-55.621a19.996 19.996 0 0 1 19.336 6.061c38.893 42.952 56.269 100.394 47.673 157.595-5.839 38.851-23.121 74.448-49.979 102.945-26.192 27.792-59.664 47.025-96.795 55.62a20.056 20.056 0 0 1-4.512 0.516z m81.689-280.598c-24.782 7.827-47.104 21.823-65.099 40.916-21.24 22.536-34.91 50.703-39.531 81.455-6.209 41.309 4.695 82.78 30.038 115.57 24.782-7.826 47.104-21.822 65.1-40.915 21.24-22.537 34.91-50.703 39.531-81.455 6.208-41.309-4.696-82.782-30.039-115.571z" fill="#662D91" p-id="4359" data-darkreader-inline-fill="" style="--darkreader-inline-fill: #5e1f8d;"></path><path d="M492.36 449.941a192.999 192.999 0 0 1-34.743-3.16c-10.865-1.988-18.062-12.408-16.074-23.273 1.988-10.865 12.407-18.067 23.273-16.074 29.706 5.437 60.103 1.981 87.908-9.99 28.445-12.245 52.179-32.665 68.635-59.051 22.113-35.456 28.574-77.867 18.326-118.038-21.72-2.456-41.098-1.042-41.326-1.026-11.004 0.848-20.62-7.417-21.454-18.431-0.835-11.015 7.417-20.62 18.431-21.454 1.311-0.1 32.451-2.367 63.474 3.309a20 20 0 0 1 15.338 13.243c18.632 54.868 11.762 114.485-18.849 163.565-20.789 33.335-50.79 59.139-86.757 74.623-24.28 10.453-50.133 15.757-76.182 15.757zM400.729 903.105H271a20 20 0 0 1-19.334-25.119c0.198-0.749 4.971-18.56 15.106-38.453 14.608-28.673 32.765-47.431 53.964-55.754 21.638-8.495 114.591-23.632 133.005-26.58 10.898-1.749 21.164 5.68 22.91 16.586 1.747 10.907-5.68 21.164-16.586 22.91-40.985 6.563-111.086 18.969-124.711 24.317-15.464 6.071-27.672 25.129-35.592 42.093h100.966c11.046 0 20 8.954 20 20s-8.954 20-19.999 20z" fill="#FFB3E6" p-id="4360" data-darkreader-inline-fill="" style="--darkreader-inline-fill: #730047;"></path><path d="M802.184 657.509l-39.709-4.812-0.012 0.101c0.053-0.479 4.909-48.373-29.236-86.505-30.439-33.993-82.448-51.229-154.584-51.229-15.646 0-30.369 1.41-43.761 4.191-10.815 2.244-21.403-4.7-23.649-15.515-2.246-10.815 4.7-21.403 15.516-23.649 16.062-3.336 33.521-5.027 51.895-5.027 84.398 0 146.611 21.916 184.912 65.14 45.959 51.865 38.949 114.657 38.628 117.305zM380.773 758.289c0-0.002-1.744-25.909-2.854-42.16-0.753-11.02 7.57-20.563 18.591-21.315 11.004-0.769 20.563 7.57 21.315 18.591 1.111 16.266 2.857 42.197 2.857 42.197l-39.909 2.687z" fill="#662D91" p-id="4361" data-darkreader-inline-fill="" style="--darkreader-inline-fill: #5e1f8d;"></path><path d="M703.689 903.127c-1.921 0-3.391-0.048-4.307-0.09H563.684c-11.046 0-20-8.954-20-20V698.75c0-43.429 20.03-77.403 57.926-98.251 27.132-14.926 54.246-17.545 55.387-17.649 10.995-0.997 20.731 7.098 21.736 18.098 1.003 10.979-7.067 20.693-18.034 21.73-0.588 0.062-21.118 2.288-40.79 13.416-24.375 13.789-36.225 34.284-36.225 62.656v164.287h116.2c0.381 0 0.762 0.011 1.142 0.032 8.483 0.432 33.514-1.149 46.347-13.36 5.887-5.602 8.629-12.892 8.629-22.942 0-11.046 8.954-20 20-20s20 8.954 20 20c0 20.957-7.345 38.973-21.241 52.097-23.298 22.003-57.865 24.263-71.072 24.263zM394.944 718.75c-40.313 0-86.704-15.698-124.096-41.992C227.74 646.443 204 607.751 204 567.809c0-39.943 23.74-78.636 66.849-108.949 37.392-26.294 83.782-41.992 124.096-41.992 83.229 0 150.941 67.712 150.941 150.941S478.174 718.75 394.944 718.75z m0-261.883c-31.905 0-70.64 13.301-101.087 34.712C262.173 513.86 244 541.645 244 567.809c0 26.163 18.173 53.948 49.857 76.229 30.448 21.411 69.182 34.712 101.087 34.712 61.173 0 110.941-49.769 110.941-110.941s-49.768-110.942-110.941-110.942z" fill="#662D91" p-id="4362" data-darkreader-inline-fill="" style="--darkreader-inline-fill: #5e1f8d;"></path><path d="M765.354 835.142c-55.151 0-100.02-44.868-100.02-100.02s44.868-100.02 100.02-100.02 100.021 44.868 100.021 100.02-44.869 100.02-100.021 100.02z m0-160.039c-33.095 0-60.02 26.925-60.02 60.02s26.925 60.02 60.02 60.02c33.096 0 60.021-26.925 60.021-60.02s-26.925-60.02-60.021-60.02z" fill="#FFB3E6" p-id="4363" data-darkreader-inline-fill="" style="--darkreader-inline-fill: #ffbdff;"></path></svg>